<svg width="18" height="18" viewBox="0 0 18 18" fill="none" xmlns="http://www.w3.org/2000/svg">
<path fill-rule="evenodd" clip-rule="evenodd" d="M9 0C9.38463 0 9.70163 0.28953 9.74495 0.662534L9.75 0.75V2.25C9.75 2.66421 9.41421 3 9 3C8.61537 3 8.29837 2.71047 8.25505 2.33747L8.25 2.25V0.75C8.25 0.335786 8.58579 0 9 0ZM4.5 9C4.5 6.51472 6.51472 4.5 9 4.5C11.4853 4.5 13.5 6.51472 13.5 9C13.5 11.4853 11.4853 13.5 9 13.5C6.51472 13.5 4.5 11.4853 4.5 9ZM12 9C12 7.34315 10.6569 6 9 6C7.34315 6 6 7.34315 6 9C6 10.6569 7.34315 12 9 12C10.6569 12 12 10.6569 12 9ZM9.74495 15.6625C9.70163 15.2895 9.38463 15 9 15C8.58579 15 8.25 15.3358 8.25 15.75V17.25L8.25505 17.3375C8.29837 17.7105 8.61537 18 9 18C9.41421 18 9.75 17.6642 9.75 17.25V15.75L9.74495 15.6625ZM2.63467 2.63467C2.90503 2.36431 3.33046 2.34351 3.62467 2.57228L3.69533 2.63467L4.76033 3.69967C5.05322 3.99256 5.05322 4.46744 4.76033 4.76033C4.48997 5.03069 4.06454 5.05149 3.77033 4.82272L3.69967 4.76033L2.63467 3.69533C2.34178 3.40244 2.34178 2.92756 2.63467 2.63467ZM14.2297 13.1773C13.9355 12.9485 13.51 12.9693 13.2397 13.2397C12.9468 13.5326 12.9468 14.0074 13.2397 14.3003L14.3047 15.3653L14.3753 15.4277C14.6695 15.6565 15.095 15.6357 15.3653 15.3653C15.6582 15.0724 15.6582 14.5976 15.3653 14.3047L14.3003 13.2397L14.2297 13.1773ZM2.25 8.25C2.66421 8.25 3 8.58579 3 9C3 9.38463 2.71047 9.70163 2.33747 9.74495L2.25 9.75H0.75C0.335786 9.75 0 9.41421 0 9C0 8.61537 0.28953 8.29837 0.662534 8.25505L0.75 8.25H2.25ZM18 9C18 8.58579 17.6642 8.25 17.25 8.25H15.75L15.6625 8.25505C15.2895 8.29837 15 8.61537 15 9C15 9.41421 15.3358 9.75 15.75 9.75H17.25L17.3375 9.74495C17.7105 9.70163 18 9.38463 18 9ZM3.69967 13.2397C3.99256 12.9468 4.46744 12.9468 4.76033 13.2397C5.03069 13.51 5.05149 13.9355 4.82272 14.2297L4.76033 14.3003L3.69533 15.3653C3.40244 15.6582 2.92756 15.6582 2.63467 15.3653C2.36431 15.095 2.34351 14.6695 2.57228 14.3753L2.63467 14.3047L3.69967 13.2397ZM15.3653 2.63467C15.0724 2.34178 14.5976 2.34178 14.3047 2.63467L13.2397 3.69967L13.1773 3.77033C12.9485 4.06454 12.9693 4.48997 13.2397 4.76033C13.5326 5.05322 14.0074 5.05322 14.3003 4.76033L15.3653 3.69533L15.4277 3.62467C15.6565 3.33046 15.6357 2.90503 15.3653 2.63467Z" fill="#313136"/>
</svg>
