<svg width="18" height="18" viewBox="0 0 18 18" fill="none" xmlns="http://www.w3.org/2000/svg">
<path fill-rule="evenodd" clip-rule="evenodd" d="M0.00432474 9.25983C-0.142018 4.49709 3.44258 0.442597 8.18735 0.00411906C8.96295 -0.0675561 9.45843 0.81161 8.99544 1.43798C7.40357 3.59159 7.62686 6.58576 9.52055 8.47945C11.4142 10.3731 14.4084 10.5964 16.562 9.00456C17.1884 8.54157 18.0676 9.03705 17.9959 9.81265C17.5574 14.5574 13.5029 18.142 8.74017 17.9957C3.97743 17.8493 0.150668 14.0226 0.00432474 9.25983ZM6.52878 2.29261L6.5626 2.19865L6.40577 2.25691C3.62183 3.33671 1.71088 6.08008 1.80688 9.20444C1.92396 13.0146 4.98537 16.076 8.79556 16.1931C11.9199 16.2891 14.6633 14.3782 15.7431 11.5942L15.8006 11.4366L15.7074 11.4712C13.2307 12.3291 10.4129 11.7853 8.42385 9.9272L8.24535 9.75465C6.2489 7.75821 5.64491 4.84439 6.52878 2.29261Z" fill="#D0D0D0"/>
</svg>
